<svg width="176" height="133" viewBox="0 0 176 133" fill="none" xmlns="http://www.w3.org/2000/svg">
<path fill-rule="evenodd" clip-rule="evenodd" d="M129.728 0.508579C128.811 0.539579 127.151 0.719579 125.395 0.979579C124.728 1.07758 122.66 1.41658 122.478 1.45658C120.528 1.88758 119.347 2.20558 117.978 2.66758C117.061 2.97658 116.183 3.26058 116.025 3.29858C113.452 3.92058 106.535 7.77158 103.145 10.4706C101.525 11.7606 98.5761 14.6946 97.2811 16.3056C96.8401 16.8556 96.2322 17.5686 95.9312 17.8896C94.1802 19.7566 90.6582 25.9916 89.1272 29.9336C88.0552 32.6936 87.9051 33.1206 87.4841 34.5886C86.8861 36.6736 86.8851 37.3896 87.4801 37.3896C89.7411 37.3896 94.9612 40.9286 96.7952 43.7056C99.4752 47.7616 100.691 54.0916 99.4971 57.7756C98.0181 62.3436 95.2102 65.9826 91.5202 68.1126C90.5412 68.6786 90.5422 68.5186 91.4812 72.3256C91.8952 74.0046 92.3372 75.8876 92.4632 76.5096C93.0082 79.1926 93.7431 82.5106 93.8941 82.9726C93.9841 83.2476 94.1352 83.8476 94.2292 84.3056C94.4802 85.5306 94.5481 85.8376 94.8931 87.3056C95.0651 88.0396 95.4031 89.5016 95.6431 90.5556C95.8841 91.6096 96.3082 93.4106 96.5862 94.5556C97.2512 97.3006 97.2352 97.2296 97.3322 97.8056C97.3792 98.0806 97.5561 98.7936 97.7251 99.3896C98.7061 102.838 98.8752 103.964 98.4402 104.131C97.9752 104.309 68.5182 104.246 68.3382 104.067C68.2392 103.968 68.2581 103.519 68.3891 102.858C68.5031 102.279 68.6301 101.624 68.6711 101.4C68.7451 101 69.0061 99.9206 69.8241 96.6396C70.0531 95.7226 70.3512 94.4476 70.4872 93.8056C70.6232 93.1646 71.0292 91.4016 71.3882 89.8896C72.1162 86.8246 72.7021 84.3116 72.8071 83.8056C73.1941 81.9306 73.6322 80.0446 73.8282 79.4126C73.9602 78.9876 74.2181 77.8896 74.4021 76.9726C74.5861 76.0556 75.0581 74.0236 75.4501 72.4566C76.4551 68.4386 76.5122 68.7166 74.3952 67.3116C69.6782 64.1816 66.9991 58.9536 67.0361 52.9526C67.0431 51.8706 66.9742 51.1666 66.8432 50.9876C66.6552 50.7306 65.2812 50.7056 49.0582 50.6736C39.3892 50.6546 31.3842 50.5786 31.2702 50.5046C30.9522 50.2986 30.9672 31.5086 31.2852 31.2446C31.4462 31.1106 37.9452 31.0516 54.6602 31.0316C67.3932 31.0166 78.4082 30.9596 79.1382 30.9046L80.4641 30.8056L81.1071 29.1396C81.4611 28.2226 81.8941 27.0706 82.0701 26.5806C82.2451 26.0896 82.5352 25.3766 82.7132 24.9966C85.0591 19.9986 85.1082 19.9116 88.1982 15.3936C89.3642 13.6876 91.7211 10.7556 93.2281 9.13658C93.9161 8.39758 95.0032 7.23158 95.6452 6.54458C96.2862 5.85658 97.3181 4.85258 97.9361 4.31258C99.0431 3.34658 99.2651 2.99258 98.8531 2.85558C98.3651 2.69358 0.722152 2.82858 0.559152 2.99158C0.429152 3.12158 0.31615 91.5906 0.39715 130.223C0.40015 131.971 0.462148 132.072 1.58115 132.153C3.00715 132.257 30.7321 132.24 30.9021 132.135C30.9931 132.079 31.0532 127.452 31.0482 120.757C31.0282 90.2666 31.0761 78.9576 31.2251 78.7226C31.3831 78.4726 51.6651 78.3236 53.4781 78.5596C54.3141 78.6686 54.3221 78.9336 53.5811 82.2446C53.3021 83.4946 53.0301 84.7696 52.9771 85.0786C52.9241 85.3866 52.4462 87.4396 51.9142 89.6396C51.3822 91.8396 50.7381 94.5766 50.4821 95.7226C49.6851 99.2896 48.8761 102.757 48.5571 103.973C48.3881 104.615 48.0871 105.965 47.8871 106.973C47.6871 107.981 47.2012 110.081 46.8062 111.64C46.4112 113.198 45.8961 115.373 45.6631 116.473C44.9261 119.94 42.9252 128.287 42.3262 130.39C41.9652 131.659 41.9861 131.997 42.4361 132.119C43.1931 132.323 135.828 132.196 137.061 131.989C137.474 131.92 138.486 131.76 139.311 131.634C145.82 130.642 147.846 129.97 154.395 126.632C161.786 122.865 169.754 112.089 172.568 102.056C172.735 101.46 172.993 100.56 173.141 100.056C173.593 98.5196 173.861 97.4976 173.95 96.9726C173.996 96.6976 174.186 95.5356 174.372 94.3896C174.558 93.2436 174.754 92.0436 174.808 91.7226C175.1 89.9746 175.11 85.1106 174.822 84.9996C174.595 84.9126 155.675 84.8316 147.645 84.8836C145.502 84.8976 145.572 84.8346 145.286 86.9936C144.36 93.9596 143.262 97.3556 141.027 100.17C134.745 108.075 124.245 105.885 119.168 95.6106C117.652 92.5426 115.832 85.9086 115.487 82.1886C115.456 81.8636 115.384 81.2326 115.326 80.7856C115.218 79.9606 115.016 77.6586 114.721 73.8896C114.543 71.6136 114.509 65.4416 114.649 60.9726C115.06 47.9316 117.877 37.0946 122.054 32.4876C122.379 32.1296 122.795 31.6706 122.978 31.4676C124.916 29.3206 130.183 27.9386 134.038 28.5636C140.879 29.6736 144.384 34.8966 145.213 45.2176C145.295 46.2336 145.441 47.1606 145.537 47.2766C145.732 47.5126 173.891 47.5556 174.42 47.3216C174.765 47.1686 174.934 46.3086 174.822 45.2696C174.775 44.8316 174.655 43.5726 174.556 42.4726C174.176 38.2506 172.662 30.8806 171.663 28.3896C171.535 28.0686 171.145 27.0556 170.798 26.1396C169.529 22.7846 166.289 16.9616 164.762 15.2906C164.602 15.1156 164.109 14.5226 163.667 13.9726C162.123 12.0496 160.133 10.1566 157.47 8.07558C154.32 5.61358 149.241 3.23658 144.311 1.91858C141.547 1.17958 141.072 1.09458 137.645 0.726581C134.802 0.422581 133.446 0.384579 129.728 0.508579Z" fill="#F2632B"/>
<path fill-rule="evenodd" clip-rule="evenodd" d="M131.228 0.0655788C128.458 0.164579 125.195 0.557579 122.874 1.07158C122.084 1.24658 121.184 1.38958 120.874 1.38958C119.112 1.39158 108.505 5.83558 107.568 6.96458C107.454 7.10158 106.675 7.64558 105.836 8.17358C104.53 8.99658 102.481 10.5206 101.311 11.5406C100.792 11.9936 97.0551 16.0076 96.5751 16.6286C96.3381 16.9336 95.6871 17.7366 95.1281 18.4116C94.5691 19.0866 93.7541 20.2766 93.3161 21.0556C92.8781 21.8346 92.4251 22.5846 92.3091 22.7226C90.5441 24.8086 86.0941 36.3806 86.6921 37.3286C86.8321 37.5506 87.9881 38.0556 88.3551 38.0556C88.7591 38.0556 91.6471 39.4946 92.8651 40.3026C94.0701 41.1016 94.9641 42.0626 96.3951 44.0936C97.8601 46.1746 98.1801 46.7446 98.4781 47.8056C98.6321 48.3556 98.8991 49.2186 99.0701 49.7226C100.584 54.1796 98.2051 62.5886 94.7041 65.1546C94.3961 65.3796 93.9201 65.8216 93.6451 66.1366C93.3701 66.4516 92.5451 67.0756 91.8111 67.5236C90.2291 68.4916 90.2071 68.5556 90.7371 70.7726C90.9391 71.6156 91.1331 72.5686 91.1701 72.8896C91.2061 73.2096 91.2751 73.5836 91.3241 73.7186C91.3731 73.8546 91.6321 74.9916 91.9001 76.2466C92.1671 77.5016 92.4981 78.8156 92.6361 79.1666C92.7731 79.5186 93.0441 80.5186 93.2391 81.3896C93.4331 82.2596 93.6991 83.4226 93.8291 83.9726C93.9601 84.5226 94.1311 85.3096 94.2101 85.7226C94.2891 86.1346 94.6621 87.8596 95.0391 89.5556C95.4151 91.2516 95.9181 93.5396 96.1561 94.6396C96.3951 95.7396 96.7751 97.2766 97.0011 98.0556C97.8531 100.986 98.4601 103.547 98.3321 103.674C98.0941 103.912 68.7181 103.892 68.6271 103.654C68.5291 103.399 69.3441 99.5686 69.5491 99.3186C69.7821 99.0356 71.1231 93.3366 71.1011 92.7226C71.0961 92.5846 71.3401 91.4976 71.6441 90.3056C71.9471 89.1146 72.2461 87.8016 72.3081 87.3896C72.3701 86.9766 72.5581 86.1896 72.7261 85.6396C72.8931 85.0896 73.2991 83.5146 73.6261 82.1396C73.9541 80.7646 74.3651 79.0766 74.5401 78.3896C74.7141 77.7016 75.0971 76.0146 75.3901 74.6396C75.6831 73.2646 76.0671 71.5236 76.2421 70.7706C76.7741 68.4906 76.7481 68.3926 75.3951 67.4856C72.2621 65.3876 71.9991 65.1596 70.8441 63.5556C68.4071 60.1716 67.3561 56.8166 67.4371 52.6766C67.4701 50.9336 67.4331 50.5176 67.2281 50.3876C66.9691 50.2216 56.7911 50.1256 50.8951 50.2316C49.1071 50.2646 46.1821 50.2766 44.3951 50.2606C37.8851 50.1986 34.1181 50.1886 32.9201 50.2316C31.2891 50.2886 31.3801 50.6266 31.4131 44.6396C31.4281 41.7976 31.4311 38.0196 31.4191 36.2446C31.3941 32.5586 31.4761 31.7796 31.9141 31.5456C32.2701 31.3556 35.3601 31.3026 43.8111 31.3426C61.4421 31.4266 80.3501 31.3006 80.5941 31.0986C80.8761 30.8636 81.4001 29.6246 82.3021 27.0556C82.6401 26.0936 83.0541 25.0056 83.2231 24.6396C84.3681 22.1456 85.1831 20.5206 85.6681 19.7606C85.9761 19.2776 86.2281 18.8366 86.2281 18.7796C86.2281 18.7226 86.6251 18.1806 87.1111 17.5746C87.5961 16.9686 88.4351 15.8346 88.9751 15.0556C89.5151 14.2766 90.3181 13.2166 90.7591 12.6996C91.2001 12.1836 91.5611 11.6786 91.5611 11.5776C91.5611 11.3666 94.6771 8.08958 97.7221 5.09758C99.7011 3.15258 99.7861 3.04258 99.5081 2.76458C99.0551 2.31158 0.65314 2.30958 0.32214 2.76258C0.0761404 3.09958 -0.00385823 4.51658 0.000141772 8.47258C0.00614177 15.0486 0.0181421 21.6766 0.0411421 30.0556C0.0541421 34.9596 0.0551405 40.5846 0.0441405 42.5556C0.0331405 44.5266 0.02714 53.5646 0.03114 62.6396C0.04114 83.9116 0.0411378 83.2146 0.0351378 108.735C0.0321378 120.704 0.0821384 130.911 0.145138 131.416L0.260136 132.335L1.03514 132.512C2.22414 132.783 30.9951 132.689 31.2711 132.413C31.4131 132.272 31.4691 131.67 31.4511 130.506C31.4351 129.571 31.4301 123.706 31.4391 117.473C31.4571 104.999 31.4541 102.921 31.4081 96.8286C31.3901 94.5496 31.4101 92.6526 31.4501 92.6116C31.4911 92.5706 31.4901 89.5976 31.4491 86.0046C31.3601 78.3806 31.2011 79.0066 33.2641 78.8696C35.2771 78.7366 53.6071 78.8826 53.7661 79.0336C53.8331 79.0966 53.7451 79.7466 53.5721 80.4776C53.1521 82.2416 52.4481 85.6396 52.3301 86.4726C52.2781 86.8396 51.8971 88.4516 51.4821 90.0556C50.2111 94.9706 50.0581 95.5856 49.6931 97.2226C49.4991 98.0936 49.3411 98.9556 49.3421 99.1396C49.3431 99.3226 48.9751 101.01 48.5251 102.89C48.0751 104.769 47.5641 107.016 47.3891 107.883C47.2141 108.75 46.9491 109.875 46.8001 110.383C46.6521 110.891 46.3891 111.794 46.2151 112.39C45.6841 114.215 44.7451 118.383 44.6441 119.362C44.6131 119.667 44.2871 121.167 43.9211 122.695C43.5551 124.223 43.0891 126.223 42.8861 127.14C42.6831 128.056 42.4201 128.919 42.3021 129.056C42.0891 129.304 41.5591 131.317 41.5641 131.858C41.5711 132.678 38.8211 132.626 83.6771 132.649C134.425 132.674 140.068 132.582 141.146 131.717C141.239 131.643 142.139 131.46 143.146 131.31C144.154 131.161 145.503 130.848 146.145 130.615C146.786 130.383 147.424 130.175 147.561 130.154C148.092 130.072 148.723 129.807 150.978 128.722C152.261 128.104 153.899 127.32 154.617 126.98C158.426 125.175 166.187 117.309 167.943 113.473C168.111 113.106 168.386 112.656 168.555 112.473C169.41 111.542 171.055 107.771 172.3 103.89C172.726 102.56 173.332 100.685 173.646 99.7226C173.961 98.7596 174.267 97.5596 174.326 97.0556C174.386 96.5516 174.582 95.3516 174.762 94.3896C175.513 90.3586 175.732 85.3236 175.18 84.7706C174.83 84.4196 146.189 84.2966 145.489 84.6426C145.255 84.7586 145.132 84.9996 145.104 85.3926C144.908 88.1646 144.155 92.3796 143.467 94.5586C140.888 102.724 133.46 106.691 126.914 103.399C124.637 102.255 121.335 99.2316 120.86 97.8576C120.755 97.5546 120.397 96.8556 120.065 96.3056C118.607 93.8936 116.13 86.8206 116.45 85.9846C116.491 85.8796 116.417 85.2346 116.287 84.5496C116.036 83.2226 115.621 80.0066 115.472 78.2226C115.422 77.6266 115.313 76.6516 115.23 76.0556C115.148 75.4596 115.075 73.0186 115.069 70.6306C115.062 68.2436 114.998 66.0686 114.926 65.7976C114.853 65.5276 114.802 65.2306 114.812 65.1396C114.821 65.0476 114.886 63.9596 114.955 62.7226C115.025 61.4856 115.189 59.0846 115.32 57.3896C115.451 55.6936 115.566 53.8936 115.574 53.3896C115.593 52.2796 116.506 46.4876 116.724 46.0896C116.81 45.9336 117.038 45.0936 117.232 44.2226C117.58 42.6576 118.345 39.9556 118.529 39.6466C118.581 39.5586 118.641 39.3246 118.662 39.1276C118.738 38.4176 121.019 34.4186 122.112 33.0806C122.405 32.7216 122.786 32.2326 122.959 31.9926C124.343 30.0776 129.292 28.5636 133.086 28.8956C137.586 29.2896 140.755 31.5036 142.821 35.6966C143.57 37.2166 144.243 40.2606 144.561 43.5616C144.718 45.1976 144.958 46.8016 145.15 47.4936C145.277 47.9546 174.454 47.9906 175.008 47.5306C175.25 47.3306 175.236 44.4216 174.987 43.0936C174.934 42.8116 174.852 42.0566 174.64 39.8896C174.542 38.8896 173.679 34.5356 172.875 30.9856C172.524 29.4356 171.569 26.7686 170.826 25.2646C170.589 24.7846 170.395 24.3506 170.395 24.3006C170.395 24.1196 167.695 18.7986 167.481 18.5556C167.359 18.4186 166.856 17.7056 166.363 16.9726C165.42 15.5696 161.305 10.5556 161.096 10.5556C161.029 10.5556 160.375 10.0296 159.642 9.38558C158.91 8.74158 157.486 7.68258 156.478 7.03158C155.47 6.38058 154.157 5.52058 153.561 5.11958C152.965 4.71858 152.39 4.39058 152.282 4.38958C152.071 4.38958 149.352 3.28858 147.978 2.64758C146.867 2.13058 146.851 2.12558 143.978 1.39158C141.605 0.785579 141.001 0.68258 138.645 0.47958C136.876 0.32658 134.004 0.0395813 133.906 0.00558127C133.854 -0.0124187 132.649 0.0145788 131.228 0.0655788ZM137.645 0.726582C141.072 1.09458 141.547 1.17958 144.311 1.91858C149.241 3.23658 154.32 5.61358 157.47 8.07558C160.133 10.1566 162.123 12.0496 163.667 13.9726C164.109 14.5226 164.602 15.1156 164.762 15.2906C166.289 16.9616 169.529 22.7846 170.798 26.1396C171.145 27.0556 171.535 28.0686 171.663 28.3896C172.662 30.8806 174.176 38.2506 174.556 42.4726C174.655 43.5726 174.775 44.8316 174.822 45.2696C174.934 46.3086 174.765 47.1686 174.42 47.3216C173.891 47.5556 145.732 47.5126 145.537 47.2766C145.441 47.1606 145.295 46.2336 145.213 45.2176C144.384 34.8966 140.879 29.6736 134.038 28.5636C130.183 27.9386 124.916 29.3206 122.978 31.4676C122.795 31.6706 122.379 32.1296 122.054 32.4876C117.877 37.0946 115.06 47.9316 114.649 60.9726C114.509 65.4416 114.543 71.6136 114.721 73.8896C115.016 77.6586 115.218 79.9606 115.326 80.7856C115.384 81.2326 115.456 81.8636 115.487 82.1886C115.832 85.9086 117.652 92.5426 119.168 95.6106C124.245 105.885 134.745 108.075 141.027 100.17C143.262 97.3556 144.36 93.9596 145.286 86.9936C145.572 84.8346 145.502 84.8976 147.645 84.8836C155.675 84.8316 174.595 84.9126 174.822 84.9996C175.11 85.1106 175.1 89.9746 174.808 91.7226C174.754 92.0436 174.558 93.2436 174.372 94.3896C174.186 95.5356 173.996 96.6976 173.95 96.9726C173.861 97.4976 173.593 98.5196 173.141 100.056C172.993 100.56 172.735 101.46 172.568 102.056C171.104 107.274 168.198 112.96 164.616 117.612C162.26 120.672 157.026 125.291 154.395 126.632C147.846 129.97 145.82 130.642 139.311 131.634C138.486 131.76 137.474 131.92 137.061 131.989C135.828 132.196 43.1931 132.323 42.4361 132.119C41.9861 131.997 41.9651 131.659 42.3261 130.39C42.9251 128.287 44.9261 119.94 45.6631 116.473C45.8961 115.373 46.4111 113.198 46.8061 111.64C47.2011 110.081 47.6871 107.981 47.8871 106.973C48.0871 105.965 48.3881 104.615 48.5571 103.973C48.8761 102.757 49.6851 99.2896 50.4821 95.7226C50.7381 94.5766 51.3821 91.8396 51.9141 89.6396C52.4461 87.4396 52.9241 85.3866 52.9771 85.0786C53.0301 84.7696 53.3021 83.4946 53.5811 82.2446C54.3221 78.9336 54.3141 78.6686 53.4781 78.5596C51.6651 78.3236 31.3831 78.4726 31.2251 78.7226C31.0761 78.9576 31.0281 90.2666 31.0481 120.757C31.0531 127.452 30.9931 132.079 30.9021 132.135C30.7321 132.24 3.00714 132.257 1.58114 132.153C0.462135 132.072 0.400137 131.971 0.397137 130.223C0.316137 91.5906 0.42914 3.12158 0.55914 2.99158C0.72214 2.82858 98.3651 2.69358 98.8531 2.85558C99.2651 2.99258 99.0431 3.34658 97.9361 4.31258C97.3181 4.85258 96.2861 5.85658 95.6451 6.54458C95.0031 7.23158 93.9161 8.39758 93.2281 9.13658C91.7211 10.7556 89.3641 13.6876 88.1981 15.3936C85.1081 19.9116 85.0591 19.9986 82.7131 24.9966C82.5351 25.3766 82.2451 26.0896 82.0701 26.5806C81.8941 27.0706 81.4611 28.2226 81.1071 29.1396L80.4641 30.8056L79.1381 30.9046C78.4081 30.9596 67.3931 31.0166 54.6601 31.0316C37.9451 31.0516 31.4461 31.1106 31.2851 31.2446C30.9671 31.5086 30.9521 50.2986 31.2701 50.5046C31.3841 50.5786 39.3891 50.6546 49.0581 50.6736C65.2811 50.7056 66.6551 50.7306 66.8431 50.9876C66.9741 51.1666 67.0431 51.8706 67.0361 52.9526C66.9991 58.9536 69.6781 64.1816 74.3951 67.3116C76.5121 68.7166 76.4551 68.4386 75.4501 72.4566C75.0581 74.0236 74.5861 76.0556 74.4021 76.9726C74.2181 77.8896 73.9601 78.9876 73.8281 79.4126C73.6321 80.0446 73.1941 81.9306 72.8071 83.8056C72.7021 84.3116 72.1161 86.8246 71.3881 89.8896C71.0291 91.4016 70.6231 93.1646 70.4871 93.8056C70.3511 94.4476 70.0531 95.7226 69.8241 96.6396C69.0061 99.9206 68.7451 101 68.6711 101.4C68.6301 101.624 68.5031 102.279 68.3891 102.858C68.2581 103.519 68.2391 103.968 68.3381 104.067C68.5181 104.246 97.9751 104.309 98.4401 104.131C98.8751 103.964 98.7061 102.838 97.7251 99.3896C97.5561 98.7936 97.3791 98.0806 97.3321 97.8056C97.2351 97.2296 97.2511 97.3006 96.5861 94.5556C96.3081 93.4106 95.8841 91.6096 95.6431 90.5556C95.4031 89.5016 95.0651 88.0396 94.8931 87.3056C94.5481 85.8376 94.4801 85.5306 94.2291 84.3056C94.1351 83.8476 93.9841 83.2476 93.8941 82.9726C93.7431 82.5106 93.0081 79.1926 92.4631 76.5096C92.3371 75.8876 91.8951 74.0046 91.4811 72.3256C90.5421 68.5186 90.5411 68.6786 91.5201 68.1126C95.2101 65.9826 98.0181 62.3436 99.4971 57.7756C100.691 54.0916 99.4751 47.7616 96.7951 43.7056C94.9611 40.9286 89.7411 37.3896 87.4801 37.3896C86.8851 37.3896 86.8861 36.6736 87.4841 34.5886C87.9051 33.1206 88.0551 32.6936 89.1271 29.9336C90.6581 25.9916 94.1801 19.7566 95.9311 17.8896C96.2321 17.5686 96.8401 16.8556 97.2811 16.3056C98.5761 14.6946 101.525 11.7606 103.145 10.4706C106.535 7.77158 113.452 3.92058 116.025 3.29858C116.183 3.26058 117.061 2.97658 117.978 2.66758C119.347 2.20558 120.528 1.88758 122.478 1.45658C123.038 1.33258 125.414 0.969579 127.228 0.731579C130.194 0.340579 134.024 0.338582 137.645 0.726582Z" fill="#985C40"/>
</svg>
