<?xml version="1.0" encoding="UTF-8" standalone="no"?>
<!-- Created with Inkscape (http://www.inkscape.org/) -->

<svg
   version="1.1"
   id="svg1"
   width="100"
   height="84.172623"
   viewBox="0 0 99.999998 84.172621"
   xmlns="http://www.w3.org/2000/svg"
   xmlns:svg="http://www.w3.org/2000/svg">
  <defs
     id="defs1" />
  <g
     id="g1"
     transform="translate(4335.7076,-141)">
    <path
       id="path13-5"
       d="m -4318.7461,170.54061 c 1.7092,0.74065 3.5086,1.27004 5.3484,1.56915 6.7062,1.08723 13.835,-0.85935 20.235,1.41958 0.5222,0.18516 1.0255,0.40593 1.5121,0.65519 -0.6552,-0.42255 -1.3863,-0.76202 -2.0866,-1.10861 -0.235,-0.11631 -0.254,-0.28248 -0.3964,-0.50325 1.8872,-0.47242 3.8646,-0.57924 5.7922,-0.30623 0.5626,0.0783 1.1276,0.1899 1.6902,0.26823 0.565,-0.0783 1.1276,-0.18989 1.6926,-0.26823 1.9252,-0.27301 3.905,-0.16619 5.7923,0.30623 -0.1425,0.22077 -0.1638,0.38694 -0.3988,0.50325 -0.698,0.34659 -1.4291,0.68606 -2.0867,1.10861 0.4867,-0.24926 0.9899,-0.47003 1.5122,-0.65519 6.4,-2.27893 13.5311,-0.33235 20.2373,-1.41958 1.8374,-0.29911 3.6392,-0.8285 5.3484,-1.56915 1.3887,-0.60295 2.7371,-1.3626 3.7911,-2.45221 0.9947,-1.02789 1.6902,-2.31454 2.2053,-3.65104 0.088,-0.22314 0.1662,-0.45104 0.2422,-0.67893 C -4255.3159,150.23917 -4269.4334,141 -4285.7087,141 c -17.1015,0 -31.8196,10.20059 -38.4047,24.84744 0.4249,0.81663 0.9377,1.58101 1.5762,2.24096 1.0517,1.08961 2.4024,1.84926 3.7911,2.45221"
       style="fill:#fd6934;fill-opacity:1;fill-rule:nonzero;stroke:none;stroke-width:0.0237388" />
    <path
       id="path14-6"
       d="m -4236.3106,153.9448 c 0.2184,2.96023 0.489,11.90976 -5.4053,19.44923 -0.8261,1.05637 -1.6784,1.9632 -2.4831,2.72759 -1.4789,1.40296 -2.7964,2.32166 -3.4967,2.7822 -0.021,0.0119 -0.04,0.0261 -0.059,0.038 -1.8208,1.18932 -3.6415,2.0368 -5.3555,2.64214 -2.3834,0.77389 -4.5056,1.05875 -5.5501,1.19643 -1.7211,0.23026 -3.1715,0.24451 -4.1852,0.21365 1.1395,1.00652 2.165,2.14362 3.0505,3.38279 0.9377,1.31038 1.8469,2.83917 3.3851,3.32106 -2.1626,0.91869 -4.2943,1.91811 -6.6207,2.23619 -2.3264,0.32048 -4.8427,-0.038 -6.6967,-1.47418 0.8807,-0.10919 1.6973,-0.11394 2.5804,-0.22314 0.6836,-0.0831 1.3982,-0.17804 1.9727,-0.55785 0.5697,-0.37984 0.9566,-1.12998 0.6979,-1.76144 -0.406,-0.0475 -0.8143,-0.0688 -1.2249,-0.0641 -2.025,0.0261 -4.4036,0.46054 -5.187,2.33116 0.3561,2.34303 -0.1638,4.81185 -1.4338,6.81542 -0.819,1.28902 -1.9181,2.36439 -2.9602,3.48961 -1.7591,4.05935 -3.2997,8.254 -3.4303,12.65043 -0.028,0.94005 0,1.9086 -0.3347,2.78456 -0.3419,0.87596 -1.1846,1.64273 -2.1175,1.5454 -0.024,-0.54837 -0.045,-1.09673 -0.069,-1.6451 -0.01,-0.20416 -0.043,-0.4463 -0.2279,-0.53176 -0.1471,-0.0665 -0.3181,0.005 -0.4581,0.0855 -0.6908,0.40357 -1.2154,1.08725 -1.4243,1.85875 -0.114,0.41544 -0.1425,0.85936 -0.33,1.24629 -0.4938,1.01366 -1.8113,1.22731 -2.9436,1.3009 v 0.005 c -0.012,0 -0.021,-0.002 -0.033,-0.002 -0.01,0 -0.021,0.002 -0.031,0.002 v -0.005 c -1.1324,-0.0736 -2.4522,-0.28724 -2.9436,-1.3009 -0.19,-0.38693 -0.2184,-0.83085 -0.33,-1.24629 -0.2113,-0.7715 -0.7336,-1.45518 -1.4267,-1.85875 -0.1401,-0.0807 -0.311,-0.15192 -0.4582,-0.0855 -0.1851,0.0855 -0.2184,0.3276 -0.2279,0.53176 -0.021,0.54837 -0.045,1.09673 -0.066,1.6451 -0.9354,0.0973 -1.7781,-0.66944 -2.1175,-1.5454 -0.3419,-0.87596 -0.3086,-1.84451 -0.3371,-2.78456 -0.1282,-4.39643 -1.6713,-8.59108 -3.4303,-12.65043 -1.0398,-1.12522 -2.1389,-2.20059 -2.9579,-3.48961 -1.2724,-2.00357 -1.7922,-4.47239 -1.4338,-6.81542 -0.7857,-1.87062 -3.162,-2.30504 -5.1893,-2.33116 -0.4083,-0.005 -0.8166,0.0166 -1.2249,0.0641 -0.2564,0.63146 0.1282,1.3816 0.6979,1.76144 0.5769,0.37981 1.289,0.47476 1.9751,0.55785 0.8807,0.1092 1.6997,0.11395 2.5804,0.22314 -1.8564,1.43621 -4.3727,1.79466 -6.6991,1.47418 -2.3264,-0.31808 -4.4558,-1.3175 -6.6184,-2.23619 1.5383,-0.48189 2.4475,-2.01068 3.3852,-3.32106 0.8451,-1.18695 1.8255,-2.27893 2.908,-3.2546 l 0.4866,-0.038 c -0.1353,-0.002 -0.2801,-0.007 -0.4297,-0.0143 0.029,-0.0261 0.057,-0.0522 0.086,-0.076 -0.349,0.009 -0.7478,0.0143 -1.1917,0.009 -2.8937,-0.23738 -7.454,-1.08249 -12.0166,-4.06171 -1.0445,-0.68131 -3.6534,-2.49733 -6.0368,-5.54777 -5.8967,-7.53946 -5.6261,-16.48899 -5.4077,-19.44923 -0.4819,2.56616 -0.9234,6.4807 -0.2801,11.16438 0.3181,2.31928 0.838,5.8801 2.9484,9.90147 1.3863,2.63738 3.0647,4.72877 4.6813,6.35014 -0.024,0.5721 -0.038,1.14659 -0.038,1.72581 0,23.2427 18.8439,42.0866 42.0866,42.0866 23.2427,0 42.0865,-18.8439 42.0865,-42.0866 0,-0.57922 -0.014,-1.15371 -0.038,-1.72581 1.6166,-1.62137 3.2949,-3.71276 4.6813,-6.35014 2.1127,-4.02137 2.6302,-7.58219 2.9483,-9.90147 0.6434,-4.68368 0.2018,-8.59822 -0.2801,-11.16438"
       style="fill:#fd6934;fill-opacity:1;fill-rule:nonzero;stroke:none;stroke-width:0.0237388" />
  </g>
</svg>
